<svg width="31" height="27" viewBox="0 0 31 27" fill="none" xmlns="http://www.w3.org/2000/svg">
<path d="M29.6861 9.24456H23.2549L19.6473 0.983965C19.4465 0.524354 18.9112 0.314317 18.4515 0.515151C17.9918 0.715864 17.7819 1.25128 17.9827 1.71095L21.2728 9.24462H9.72725L13.0174 1.71095C13.2181 1.25128 13.0082 0.715924 12.5486 0.515151C12.0889 0.314317 11.5535 0.524233 11.3528 0.983965L7.74519 9.24456H1.31396C0.47266 9.24456 -0.1517 10.0062 0.0323629 10.8079L3.41905 25.5589C3.55353 26.1446 4.08598 26.561 4.70065 26.561H26.2994C26.9141 26.561 27.4465 26.1446 27.581 25.5589L30.9677 10.8079C31.1518 10.0062 30.5273 9.24456 29.6861 9.24456V9.24456ZM7.91605 12.03C7.79471 12.03 7.67138 12.0055 7.55301 11.9538C7.09334 11.7531 6.88342 11.2177 7.0842 10.758L7.76644 9.19576H9.7485L8.74875 11.4849C8.59975 11.8263 8.26613 12.03 7.91605 12.03ZM10.959 21.7172C10.959 22.2188 10.5524 22.6254 10.0508 22.6254C9.54924 22.6254 9.14261 22.2188 9.14261 21.7172V15.0571C9.14261 14.5555 9.54924 14.1489 10.0508 14.1489C10.5524 14.1489 10.959 14.5555 10.959 15.0571V21.7172ZM16.4082 21.7172C16.4082 22.2188 16.0016 22.6254 15.5 22.6254C14.9985 22.6254 14.5918 22.2188 14.5918 21.7172V15.0571C14.5918 14.5555 14.9985 14.1489 15.5 14.1489C16.0016 14.1489 16.4082 14.5555 16.4082 15.0571V21.7172ZM21.8575 21.7172C21.8575 22.2188 21.4508 22.6254 20.9493 22.6254C20.4477 22.6254 20.041 22.2188 20.041 21.7172V15.0571C20.041 14.5555 20.4477 14.1489 20.9493 14.1489C21.4508 14.1489 21.8575 14.5555 21.8575 15.0571V21.7172ZM23.447 11.9538C23.3287 12.0055 23.2053 12.03 23.084 12.03C22.7339 12.03 22.4003 11.8264 22.2513 11.485L21.2515 9.19582H23.2336L23.9158 10.758C24.1166 11.2177 23.9067 11.7531 23.447 11.9538Z" fill="#E66767"/>
</svg>
